<svg enable-background="new 0 0 32 32" height="32" viewBox="0 0 32 32" width="32" xmlns="http://www.w3.org/2000/svg"><path d="m13 26.008-.938 2.062c-.415.914-1.275 1.466-2.266 1.466-.046 0-.094-.001-.141-.004-1.049-.055-1.908-.708-2.24-1.706l-2.494-7.482c-.272-.816-.181-1.71.251-2.454s1.163-1.268 2.006-1.436l3.843-.769-5.939-.54c-1.187-.108-2.198-.908-2.575-2.039l-1.823-5.474c-.206-.617-.106-1.274.274-1.801s.972-.831 1.623-.831c1.35 0 2.675.465 3.73 1.308l6.689 5.351zm18.042-20.177c-.381-.528-.972-.831-1.623-.831-1.35 0-2.675.465-3.73 1.308l-6.689 5.351v14.349l.937 2.062c.415.914 1.275 1.466 2.266 1.466.046 0 .094-.001.141-.004 1.049-.055 1.908-.708 2.24-1.706l2.494-7.482c.272-.816.181-1.71-.251-2.454s-1.163-1.268-2.006-1.436l-3.843-.769 5.939-.54c1.187-.108 2.198-.908 2.574-2.039l1.825-5.475c.206-.616.106-1.273-.274-1.8zm-13.042 5.169c0-.709-.371-1.328-.927-1.683l.535-1.874c.27-.944.958-1.666 1.889-1.979.929-.314 1.915-.155 2.702.435.222.166.535.122.7-.1.166-.221.121-.534-.1-.7-1.037-.778-2.39-.997-3.62-.583-1.229.414-2.176 1.405-2.532 2.652l-.527 1.844c-.041-.002-.079-.012-.12-.012s-.079.01-.119.012l-.527-1.844c-.356-1.247-1.303-2.238-2.532-2.652-1.23-.415-2.583-.196-3.62.583-.221.166-.266.479-.1.7s.479.265.7.1c.787-.59 1.771-.748 2.702-.435s1.62 1.034 1.889 1.979l.535 1.874c-.557.355-.928.974-.928 1.683v14c0 1.105.895 2 2 2s2-.895 2-2z" fill="#0b1719"></path></svg>